<svg width="30" height="30" viewBox="0 0 30 30" xmlns="http://www.w3.org/2000/svg" xmlns:xlink="http://www.w3.org/1999/xlink"><defs><path d="M0 15.02A15 15 0 0 0 14.97 30a15 15 0 0 0 14.98-14.98A15 15 0 0 0 14.97.05 15 15 0 0 0 0 15.02z" id="a"/></defs><g fill="none" fill-rule="evenodd"><g><use fill="#FFF" xlink:href="#a"/><path stroke="#00A8EC" d="M.5 15.02A14.5 14.5 0 0 0 14.97 29.5a14.5 14.5 0 0 0 14.48-14.48A14.5 14.5 0 0 0 14.97.55 14.5 14.5 0 0 0 .5 15.02z"/></g><path fill="#00A8EC" d="M16.05 9l-1 1 4.26 4.25H7v1.4h12.31l-4.25 4.26.99 1L22 14.94z"/></g></svg>