<svg xmlns="http://www.w3.org/2000/svg" width="27" height="14" viewBox="0 0 27 14"><g><g><g><path fill="#00008b" d="M0 13.23V0h26.46v13.23z"/></g><g><path fill="#fff" d="M13.23 0v.462L9.826 2.165l-.219.109H7.758l.22-.11L12.305 0z"/></g><g><path fill="#fff" d="M5.472 4.341l-.219.11L.924 6.615H0v-.462l3.405-1.702.218-.11z"/></g><g><path fill="#fff" d="M5.472 2.274H3.623l-.218-.11L0 .462V0h.924l4.33 2.164z"/></g><g><path fill="#fff" d="M13.23 2.688v1.24H7.235v2.687h-1.24V3.928H0v-1.24h5.995V0h1.24v2.688z"/></g><g><path fill="#fff" d="M13.23 6.153v.462h-.924L7.977 4.451l-.219-.11h1.85l.218.11z"/></g><g><path fill="#00008b" d="M13.23 0v.462L9.826 2.165l-.219.109H7.758l.22-.11L12.305 0z"/></g><g><path fill="#00008b" d="M5.472 4.341l-.219.11L.924 6.615H0v-.462l3.405-1.702.218-.11z"/></g><g><path fill="#00008b" d="M5.472 2.274H3.623l-.218-.11L0 .462V0h.924l4.33 2.164z"/></g><g><path fill="#00008b" d="M13.23 2.688v1.24H7.235v2.687h-1.24V3.928H0v-1.24h5.995V0h1.24v2.688z"/></g><g><path fill="#00008b" d="M13.23 6.153v.462h-.924L7.977 4.451l-.219-.11h1.85l.218.11z"/></g><g><path fill="#fff" d="M6.615 7.938l.383 1.19 1.169-.442-.692 1.04 1.075.638-1.245.109.171 1.238-.86-.906-.862.906.172-1.238-1.246-.109 1.075-.637-.691-1.041 1.169.442z"/></g><g><path fill="#fff" d="M19.846 10.08l.182.567.557-.21-.33.495.512.304-.593.051.082.59-.41-.432-.41.432.081-.59-.593-.051.512-.304-.33-.496.557.211z"/></g><g><path fill="#fff" d="M16.538 4.843l.182.567.557-.21-.33.495.512.304-.593.051.082.59-.41-.432-.41.432.082-.59L15.617 6l.512-.304-.33-.496.557.21z"/></g><g><path fill="#fff" d="M19.846 1.26l.182.567.557-.211-.33.496.512.303-.593.052.082.59-.41-.432-.41.432.081-.59-.593-.052.512-.303-.33-.496.557.21z"/></g><g><path fill="#fff" d="M22.786 3.961l.182.567.557-.21-.33.495.512.304-.593.051.082.59-.41-.432-.41.432.081-.59-.593-.051.512-.304-.33-.496.558.21z"/></g><g><path fill="#fff" d="M21.169 6.615l.144.353.38.028-.291.246.09.37-.323-.2-.324.2.09-.37-.29-.246.38-.028z"/></g><g><g><path fill="red" d="M6.22 2.45H3.581l-.572-.286L0 .66V0h1.319l4.153 2.077.176.087.347.174z"/></g><g><path fill="#fff" d="M6.615 2.451l-.572-.287-.048-.023-.365-.183-.158-.078L1.714 0h-.79l4.33 2.164.218.11H3.623l-.218-.11L0 .462v.395l2.615 1.307.85.426.075.037h3.426z"/></g></g><g><g><path fill="red" d="M13.23 5.955v.66h-1.318L7.758 4.54l-.175-.088-.572-.286H9.65l.571.286z"/></g><g><path fill="#fff" d="M10.615 4.45l-.85-.424-.075-.037H6.264l.351.175.573.287.047.024.365.182.158.08 3.759 1.878h.79l-4.33-2.164-.219-.11h1.85l.218.11 3.404 1.702v-.394z"/></g></g><g><g><path fill="red" d="M6.22 4.165l-.572.286-.176.088L1.32 6.615H0v-.66l3.01-1.504.572-.286z"/></g><g><path fill="#fff" d="M3.54 3.989l-.075.037-.85.425L0 5.759v.394l3.405-1.702.218-.11h1.85l-.22.11L.924 6.615h.79l3.758-1.878.158-.08.365-.182.048-.024.572-.287.351-.175z"/></g></g><g><g><path fill="red" d="M13.23 0v.66l-3.01 1.505-.571.285H7.01l.224-.112.348-.173.175-.088L11.912 0z"/></g><g><path fill="#fff" d="M9.826 2.164l-.219.11H7.758l.22-.11L12.305 0h-.79L7.759 1.88l-.158.078-.365.183-.047.024-.573.286-.35.176H9.69l.075-.037.85-.426L13.23.857V.462z"/></g></g><g><path fill="#fff" d="M0 2.164h13.23v2.287H0z"/></g><g><path fill="#fff" d="M5.472 6.615V0h2.286v6.615z"/></g><g><path fill="red" d="M13.23 2.688v1.24H7.235v2.687h-1.24V3.928H0v-1.24h5.995V0h1.24v2.688z"/></g></g></g></svg>