<svg width="244" height="148" viewBox="0 0 244 148" version="1" xmlns="http://www.w3.org/2000/svg"><g fill="#DBE4ED" fill-rule="nonzero"><path d="M48 61a39 39 0 0 1 0 79 39 39 0 0 1 0-79zm0-8a47 47 0 1 0 0 94 47 47 0 0 0 0-94z"/><path d="M48 129a29 29 0 0 1-29-29l-2-2c-2 0-3 1-3 2 0 19 15 33 34 33l2-2-2-2zM197 61a39 39 0 0 1 0 79 39 39 0 0 1 0-79zm0-8a47 47 0 1 0 0 94 47 47 0 0 0 0-94z"/><path d="M197 71a29 29 0 0 1 28 29l2 2c2 0 3-1 3-2 0-18-15-33-34-33l-2 2c0 1 1 2 3 2z"/><path d="M166 36l10 22 3 8 10 24c-3 3-5 6-5 10a12 12 0 0 0 25 0c0-6-5-12-12-12l-10-25-4-8-17-42c-3-6-9-11-16-11l-14-2-1 9 14 1c4 0 8 3 9 6l6 14-75-1-5-8h9a4 4 0 1 0 0-8l-28-1a4 4 0 1 0-1 9h10l6 10-15 26-4 7-14 24c-7 0-12 5-12 12 0 5 2 9 6 11l2 1 4 1c6 0 11-5 12-10h27l8 1h8a20 20 0 1 0 36-16l28-52zm31 60c2 0 3 2 3 4s-1 4-3 4c-3 0-4-2-4-4s2-4 4-4zm-150 8c-2 0-4-2-4-4s2-4 4-4 4 2 4 4-2 4-4 4zm55-9H85l-27-1-3-3 14-23 4-7 12-21 24 44c-3 3-6 7-7 11zm19 17c-6 0-11-5-11-12 0-6 5-12 12-12 6 0 11 6 11 12 0 7-5 12-12 12zm10-30a21 21 0 0 0-14-2L93 38h62l-24 44z"/></g></svg>