<svg xmlns="http://www.w3.org/2000/svg" width="27" height="14" viewBox="0 0 27 14"><g><g><g><path fill="#fff" d="M0 13.229V0h26.447v13.229z"/></g><g><path fill="#cf142b" d="M11.901 7.933v5.296h2.645V7.933h11.901V5.29h-11.9V0H11.9v5.289H0v2.644z"/></g><g><path fill="#00247d" d="M15.428 4.282V0h8.563z"/></g><g><path fill="#00247d" d="M15.428 8.947v4.282h8.563z"/></g><g><path fill="#00247d" d="M11.02 8.947v4.282H2.455z"/></g><g><path fill="#00247d" d="M11.02 4.282V0H2.455z"/></g><g><path fill="#00247d" d="M0 1.23v3.18h6.358z"/></g><g><path fill="#00247d" d="M26.447 1.23v3.18H20.09z"/></g><g><path fill="#00247d" d="M26.447 12V8.82H20.09z"/></g><g><path fill="#00247d" d="M0 12V8.82h6.358z"/></g><g><path fill="#cf142b" d="M26.447 0h-1.469l-8.802 4.41h1.47L26.46 0"/></g><g><path fill="#cf142b" d="M10.27 8.82H8.803L0 13.228h1.469l8.815-4.41"/></g><g><path fill="#cf142b" d="M7.344 4.413h1.47L0 0v.74z"/></g><g><path fill="#cf142b" d="M19.098 8.818h-1.469l8.813 4.412v-.74z"/></g></g></g></svg>