<svg width="1481" height="1087" viewBox="0 0 1481 1087" xmlns="http://www.w3.org/2000/svg"><g stroke="#D5DDE2" stroke-width=".75" fill="none" fill-rule="evenodd" opacity=".8" stroke-linecap="round" stroke-linejoin="round"><path d="M7.6 195.63c12.44-1.3 21.56-10.04 28.85-18.78 18.24-27.66 31-53.88 36.48-84.45 1.82-16.02-1.83-32.04 0-48.06l5.47-4.37c12.77-4.36 20.06 8.74 16.41 17.48A583.94 583.94 0 0 1 60.16 155c-3.65 10.2 0 21.84-1.82 32.03 0 5.83 1.82 13.11-5.47 18.93-5.47 5.83-12.77 10.2-20.06 13.11-9.12 2.91-16.42 4.37-25.63 6.44"/><path d="M7.18 164.76c8.76-2.71 16.06-8.53 19.7-17.26 5.48-21.83 16.43-39.3 27.37-59.66 12.77-27.65 3.65-56.75-1.67-83.75"/><path d="M6.15 129.74c26.8-25.97 27.24-63.22 31.6-95.16 1.42-10.39 2.61-21.37-1.25-31.52M201.8 3.06c-7.58 11.68-14.84 30.57 3.3 37.83 12.71 2.9 25.42 2.9 38.12 7.26 10.89 5.82 23.6 10.17 36.3 14.53 10.88 2.9 23.59-2.9 34.47-4.36 3.63 0 9.08 1.46 12.7 2.9 14.53 8.73 25.41 17.44 39.93 24.7v2.91c-10.89 4.36-23.59 0-32.66-5.8-5.45-4.37-5.45-13.08-14.52-14.54-16.33-2.9-29.04 7.27-45.37 10.17-3.63 0-9.07 0-12.7-1.45-16.34-5.81-29.04-15.98-47.19-21.8-30.85-7.26-63.51-11.61-94.74-1.95"/><path d="M81.33 4.15c3.24 8.26-.38 22.64 14.09 25.51 16.27-11.5 36.15-4.31 54.23 0 12.66 4.31 28.93 2.88 34.35-8.62 1.8-5.76 3.62-11.5 1.27-16.95M119.44 53.53C107.08 59.84 99.81 70 96.17 81.62c-3.64 21.77-3.64 42.1-10.91 63.88-5.46 15.97-12.74 31.94-14.56 49.36 0 1.45 0 2.9 1.82 4.35 5.46 4.36 12.74 8.71 14.55 14.52 0 1.45-1.81 2.9-3.63 2.9-9.1 0-20.01 1.46-29.1 1.46-16.38 2.9-30.93 10.16-47.16 15.67M1474.82 330.58c-18.5-.53-45.8 2.35-49.44-16.38 5.46-17.28 30.93-14.4 49.1-14.26"/><path d="M222.02 3.06c-19.06 10.19-6.34 29.07 8.2 34.88 21.8 8.72 43.6 14.53 67.2 11.63 9.09-1.46 16.36-4.36 25.44-2.9 19.98 1.44 27.25 14.52 38.15 26.14 3.63 2.9 7.27 4.36 12.71 5.81 3.64 1.45 9.09 1.45 12.72 4.36 5.45 1.45 10.9 1.45 14.53 2.9 10.9 5.82 18.17 11.63 27.25 18.89 3.64 1.45 7.27 2.9 10.9 2.9 18.17 0 32.7 5.82 49.05 11.63 10.9 4.36 23.62 1.45 34.52 7.26 1.81 2.9-1.82 5.81-5.45 5.81-7.27 0-14.53-2.9-21.8-4.36-19.98-2.9-39.97-4.35-59.95-7.26-10.9-1.45-18.17-10.17-29.07-10.17-9.08 0-9.08 8.72-5.45 14.53 9.09 14.53 27.25 23.24 30.89 40.68l-1.82 1.45c-5.45-1.45-12.72-1.45-16.35-5.81-16.35-18.89-23.62-43.59-50.86-52.3-9.09-2.9-16.35-5.81-23.62-10.17-5.45-7.26-10.9-14.53-19.98-18.89-18.17-7.26-36.34 7.27-54.5 7.27-3.64 0-9.09-1.46-12.72-2.9-30.88-13.08-63.58-20.35-99.91-26.16-12.72-1.45-30.89 0-34.52 10.17-12.72 31.96-12.72 63.92-16.35 97.34-1.82 10.16-3.63 20.33-3.63 30.5-1.82 11.62 5.45 21.8 18.16 29.06 1.82 1.45 3.64 2.9 1.82 4.36-5.45 4.35-12.72 1.45-18.17 1.45-32.7-4.36-67.21 2.9-92.23 19.08"/><path d="M7.18 292.47c10.85-11.84 21.75-22.03 36.28-30.77 29.06-17.48 61.75-18.93 96.26-26.22 5.45 0 1.82-7.28-1.82-10.2-5.44-2.9-12.71-2.9-18.16-5.82-5.45-4.37-5.45-10.2-3.63-16.02 12.71-33.5 7.26-65.54 9.08-99.04 1.82-11.65 7.27-23.3 19.98-27.67 34.5-10.2 72.65 1.45 103.53 18.93 3.63 1.46 9.08 2.92 12.7 4.37 16.36 2.91 30.89-4.37 45.42-2.91 45.4 2.91 69.01 36.41 96.26 62.63l16.34 13.1c5.45 1.46 9.08 4.37 12.72 7.29 1.81 1.45 5.45 1.45 9.08 2.91 7.26 4.37 1.81 11.65 5.45 17.48 1.81 4.37 10.9 4.37 12.71 0 7.27-21.85-19.98-39.33-34.5-56.8-1.82-2.92-5.46-7.29-5.46-10.2 1.82-4.37 7.27-2.91 10.9-2.91 21.8 0 41.77 2.91 63.57 5.82 16.35 1.46 32.7 2.92 45.4 11.66h3.64c3.63 0 5.45 2.9 7.26 4.36 5.45 2.92 10.9 1.46 16.35 4.37 3.63 0 9.08 1.46 12.71-1.45 5.45-7.28 1.82-17.48-5.45-21.85-25.42-14.56-54.48-20.39-83.54-29.13C432.14 84.01 341.32 68 346.14 4.1M1475.85 778.6c-2.36 2.11-4.18 2.11-4.18 3.57-5.45 13.08 0 26.17-1.81 39.26-3.64 16-19.99 26.17-34.52 34.9-47.24 27.63-98.11 43.62-134.45 79.98-19.98 20.35-34.52 43.62-56.32 62.52-16.35 13.1-39.97 16-61.77 8.73-9.09-2.9-14.54-8.73-21.8-13.09-16.36-14.54-34.52-24.72-50.88-39.26-30.88-29.08-49.05-61.08-70.85-94.52-3.64-5.82-10.9-7.27-12.72-13.09-1.82-5.81-7.27-10.18-9.08-16 0-1.45-1.82-4.36-1.82-5.81-3.64-7.27-10.9-13.09-12.72-21.81-1.82-4.37-5.45-7.27-10.9-8.73-3.63 5.82-1.82 13.09-1.82 18.9 9.09 29.09 19.99 55.26 30.89 82.9 1.82 4.36-1.82 10.17 1.82 14.53 23.61 27.63 29.07 61.08 23.61 93.07-5.45 32-29.06 59.62-63.58 75.62-3.64 1.45-9.09 2.9-12.72 4.36-16.35 2.9-32.7 2.9-49.06-2.9a289.21 289.21 0 0 0-50.87-17.46c-81.76-20.36-159.88-37.8-241.64-55.26-30.88-7.27-59.95-10.18-90.84-16-36.33-8.72-67.22-18.9-103.56-26.17-25.43-5.81-49.05-7.27-74.49-5.81-30.88 2.9-61.77 4.36-92.66 2.9-21.8-1.45-43.6-2.9-63.59-8.72-1.81 0-3.63-2.9-5.45-2.9-3.63-1.46-9.08-1.46-12.71-2.92-9.09-4.36-19.99-7.27-29.07-10.18-54.5-23.26-101.75-50.9-136.27-94.52-3.63-4.36-9.08-7.27-12.84-10.3M1474.82 267.59c-19.92-5.08-39.92-8-61.74-10.9-21.81-2.92-40-8.75-60-13.11-20-4.37-41.8-20.39-63.62-8.74-7.28 2.91 0 11.65 3.63 16.02 23.64 24.75 34.54 50.96 52.72 78.63 3.64 7.28 10.91 14.56 21.82 18.93 34.54 13.1 70.9 13.1 106.98 18.2"/><path d="M1474.59 403.36c-25.12 1.8-48.76 3.26-74.22 1.8-32.74-2.9-61.83-11.62-89.11-27.6-34.55-21.8-49.1-55.22-54.56-88.64 0-1.45-3.63-1.45-3.63-2.9-3.64-10.18-9.1-20.35-16.37-30.52-3.64-2.9-5.46-5.82-9.1-10.17-14.54-13.08-29.09-24.7-43.64-36.33-1.82-1.45-1.82-4.36-3.63-5.81-23.64-20.35-43.65-39.24-67.29-59.58-1.82-1.45 0-5.81 1.82-7.27 1.82 0 1.82-1.45 3.64-1.45a3836.05 3836.05 0 0 1 223.67 62.48c43.65 11.63 87.3 23.25 132.65 20.71M7.18 682.8c27.58 50.35 64.24 99.88 112.53 139.3 23.28 19 50.12 36.44 80.18 48.03 16.05 6.18 33.2 10.93 50.98 12.34 19.42 1.54 38.95.87 58.37-.24 38.6-2.2 75.7-3.82 113.88 2.72 36.87 6.31 71.8 17.8 106.58 29.2 67 22 133 46.05 201.06 65.95 34.69 10.14 69.89 19.2 105.71 26.39 34.22 6.87 71.39 15.54 106.55 8.33 31.65-6.48 57.14-25.2 67.55-50.05 11.65-27.8 2.46-58.36-7.32-85.63-5.25-14.63-10.92-29.17-15.32-43.98-4.51-15.22-6.69-30.84-9.57-46.3-1.43-7.62-3.35-15.2-4.69-22.83-1.26-7.23 2.45-10.91 10.35-5.88 6.61 4.22 10.04 11.03 13.59 17.03 4.02 6.78 7.51 13.76 11.23 20.65 7.98 14.77 18.22 27.56 30.15 40.46 11.2 12.11 22.46 24.02 30.12 37.86 14 25.33 27.14 50.27 54.51 68.27 23.1 15.18 52.57 24.4 82.63 23.55 33.66-.94 61.9-15.55 82.61-36.13 24.74-24.58 46.07-51.41 71.97-75.24 25.95-23.86 54.74-45.72 81.43-69.04 6.34-5.54 12.52-11.18 18.7-16.82 5.55-5.05 9.74-10.68 14.89-15.95M395.88 3.06c4.04 8.72 14.95 11.64 22.22 17.47 3.63 2.91 9.09 4.37 7.27 10.2-5.46 8.74-12.73 17.49 0 24.77 3.63 1.46 5.45 4.37 9.09 7.29 5.45 4.37 10.9 7.29 18.17 10.2 49.08 14.57 96.35 29.15 143.6 51 10.92 5.84 21.82 10.2 25.46 18.95 1.82 5.83-3.64 11.66-9.1 14.57-12.72 4.38-27.26 10.2-41.8 8.75-27.27-5.83-52.72-8.75-79.98-10.2-9.1 0-16.36-1.46-25.45-5.83-5.45-1.46-14.54 0-18.18 4.37-1.82 4.37 1.82 8.74 3.64 11.66 5.45 5.83 10.9 10.2 12.72 16.03 7.27 18.94 10.9 36.43 25.45 52.46 1.82 2.92 1.82 8.75-1.82 10.2-9.09 1.46-16.36-5.83-21.81-11.66-16.36-21.86-27.27-45.17-54.53-59.75-32.72-17.48-58.17-33.51-90.9-51-9.08-4.37-18.17-8.74-27.26-8.74-14.54 0-27.27 0-41.8-1.46-25.46-2.92-45.45-14.58-67.27-23.32-14.54-4.37-27.26 5.83-32.71 16.03-10.91 26.23-14.55 52.46-16.36 80.15 0 2.92-1.82 7.29-3.64 10.2-3.64 13.12 7.27 23.32 18.18 32.07l5.45 8.74 3.64 1.46c1.81 5.83-7.27 8.74-12.73 8.74-36.35 1.46-76.34 2.91-98.16 27.69-14.54 17.49-27.26 32.06-40.09 48.24"/><path d="M7.18 354.26c10.98-14.63 18.24-30.62 29.14-46.6 21.79-33.42 69-49.4 114.4-49.4 10.9 0 19.98-10.18 16.35-18.9-12.71-31.96-27.24-66.84-3.63-98.8 9.08-10.18 21.8-14.54 36.32-11.63 14.53 4.36 29.06 10.17 43.58 15.98 21.8 7.27 45.4 5.82 69.01 10.17a76.06 76.06 0 0 1 19.98 7.27c27.24 15.98 50.85 31.97 81.72 42.14 9.08 4.36 18.16 8.72 25.42 14.53 29.06 26.16 50.85 53.76 83.54 77.01 3.63 1.46 10.9 4.36 10.9 1.46 1.81-26.16-29.06-46.5-41.77-69.75-3.63-7.27-3.63-17.44 9.08-18.9 10.9-1.44 19.98 2.91 29.06 1.46 23.6-4.36 43.58-13.08 65.37-18.89 23.61-5.81 52.67-5.81 70.83 8.72 7.26 7.27 7.26 15.98 1.81 23.25-9.08 8.72-23.6 4.36-36.32 5.81-12.7 1.45-12.7 14.53-3.63 20.34 21.8 13.08 50.85 15.99 76.27 7.27 7.27-1.45 10.9-8.72 10.9-13.08 3.63-21.8-1.82-47.95 27.24-58.12 45.4-13.08 96.25-10.17 134.39 14.53 25.42 15.98 21.79 39.23 27.24 62.48 1.81 14.53 18.16 23.25 36.32 24.7 9.08 0 19.97 1.46 29.05 2.91h9.08c21.8 7.27 43.59 10.17 67.2 14.53 12.7 1.45 29.05-1.45 36.32-11.62 1.81-26.16-30.88-40.69-56.3-49.4-39.95-14.54-70.82-36.33-101.7-61.04-16.34-11.62-39.95-10.17-61.74-13.07-19.98-1.46-38.14-4.36-56.3-13.08-16.34-10.17-23.6-21.8-30.87-36.33-9.08-13.08-29.06-5.81-39.95 2.9-23.61 7.27-50.85 7.27-74.46 1.46-7.26-2.9-9.08-11.62-5.45-17.44 3.63-2.9 7.27-5.8 12.71-5.8 18.16 0 39.96 2.9 50.85-10.18 7.27-10.17-5.45-20.34-14.53-26.16-36.32-21.8-72.64-37.78-105.93-60.9M1474.82 172.55c-62.32 5.28-125.93-2-185.91-18.02-12.72-4.36-25.45-8.73-39.99-11.64-5.45-1.46-9.08-4.37-14.54-5.83-3.63-1.45-5.45 0-9.08-1.45-5.46-1.46-9.1-4.37-14.54-5.83-3.64-1.45-5.46 0-9.1-1.45-45.43-16.02-92.68-20.39-143.57-29.12-7.27 0-14.54-1.46-20 1.45-5.45 4.37-7.27 8.74-1.81 13.1 12.72 10.2 27.26 17.48 38.16 29.13 16.36 20.38 34.54 34.94 52.71 53.87 10.9 11.64 12.72 26.2 21.81 39.3 1.82 2.92 7.27 7.29 12.72 8.74 27.27 7.28 47.26 26.21 50.9 48.05 1.81 20.38-3.64 42.22 12.72 61.15 16.35 16.02 34.53 26.2 56.34 36.4 25.44 14.56 47.25 29.12 65.43 49.5l27.26 34.94a79.95 79.95 0 0 0 18.18 14.56c9.08 4.37 23.62 4.37 25.44-4.36 10.9-24.75 25.45-48.05 56.03-54.84"/><path d="M1114.07 250.8a15.35 15.35 0 0 0-7.9 15.03c.97 10.78 12.01 18.53 23.63 24.43 11.94 6.07 27 11.45 34.81 2.97 4.08-4.43 3.86-10.23 2.07-15.63-3.47-10.48-12.34-19.28-24.01-24.82-9.1-4.32-20.21-6.77-28.6-1.97zM947 136.43c-12.7 10.93-5.51 27.5 6.13 39.96 12.87 13.78 31.62 22.87 49.45 32.6 34.35 18.75 72.52 43.83 83.14 17.53 5.3-13.16-1.51-26.63-11.23-38.34-13.72-16.54-32.45-29.92-52.28-41.88-14.72-8.87-30.7-17.23-48.95-17.58-9.8-.18-19.62 2-26.26 7.71zM1474.82 55.59c-31.97-20.92-70.53-33.73-105.05-51.5M776.53 4.09c.64 18.74 16.99 34.74 35.16 47.83 3.63 2.91 5.45 5.82 9.08 8.73 19.99 13.1 41.8 26.19 69.05 23.28 19.98-2.91 36.33-14.55 54.5-18.91 52.7-13.1 107.2 1.45 156.26 16 54.5 17.45 107.2 32 165.34 40.73 41.79 5.82 79.94 8.73 119.92 13.1 30.88 4.36 58.14 10.17 88.98 13.43M912.48 3.06c51.03 22.03 101.86 38.06 159.95 48.27 79.88 16.04 150.67 37.9 232.37 49.57 14.52 1.46 29.04 2.92 43.56 1.46 19.97-1.46 38.13-5.83 52.65-17.5 1.81-1.46 1.81-4.37 5.44-7.29 5.45-8.75 1.82-18.95-10.89-21.87-21.78-4.37-43.57 1.46-65.35-4.37-29.05-8.75-49.01-27.7-61.8-48.1"/><path d="M991.79 3.06c68.38 23.21 137.48 47.78 213.86 53.56 7.27 0 16.36-4.34 14.54-13-1.81-2.9-3.63-5.79-7.27-7.23-16.37-7.23-29.1-18.78-25.8-33.2M264.26 6.23c-6.16 4.86-.86 12.5 7.04 16.38 8.6 4.25 19.3 3.57 29.2 1.34 8.83-1.99 18.34-5.4 17.68-12.2-.61-6.46-9.75-8.96-18.32-10.04C289.6.42 278.96.76 269.34 3.8a15.89 15.89 0 0 0-5.08 2.43zM1481 455.52c-7.32 4.2-13.5 9.55-17.81 16.07-8.29 12.54-8.47 27.38-14.66 40.72-5.05 10.91-14.17 21-28.21 23.1-11.39 1.72-22.49-2.35-32.14-7.64-25.15-13.79-40.56-35.78-60.24-54.57-27.02-25.8-61.77-45.35-97.29-63.48-39.3-20.06-79.98-38.53-123.8-51.17-34.77-10.04-71.03-16.25-107.6-20.68-36.3-4.39-72.89-7.03-109.54-8.77-44.97-2.14-90.46-2.88-133.2-14-38.27-9.96-72.62-27.88-111.14-37.16-28.38-6.84-59.14-8.95-82.52-23.23-8.08-4.93-16.47-12.06-22.56-6.68-3.55 3.14-3.11 7.71-1.97 11.95 3.9 14.55 15.84 26.66 23.91 40.14 10.08 16.82 14.43 35.61 26.7 51.41 4.52 5.81 10.75 12.2 3.94 13.6-4.14.86-7.94-1.23-11.36-3.45-10.09-6.57-18.68-14.45-27.55-22.07-26.24-22.53-53.78-44.05-79.85-66.7-12.57-10.93-24.87-22.11-39.28-31.46-35.2-22.82-79.94-32.9-120.93-48.67-27.44-10.56-53.65-23.9-83.54-27.97-15.65-2.13-32.43-1.72-43.86 6.82-14.96 11.17-11.72 29.46-7.3 46 3.89 14.56 9.3 29.89 0 42.44-6.5 8.75-18.3 13.63-30.5 16.82-24.53 6.41-51.72 6.34-72.98 17.79-26.41 14.22-34.66 41.28-52.95 62.54-6.74 7.83-14.92 14.98-21.77 22.6v73.57l1 2.24c17.35 39.35 21.72 81.7 40.62 120.56 24.25 49.85 70.44 90.2 124.12 122.33 36.55 21.87 76.6 39.88 119.98 51.1 60.42 15.64 124.94 17.6 186.07 31.46 66.12 14.98 126.03 43.26 190.07 63.4 49.04 15.41 100.17 26 151.45 35.76 19.57 3.73 39.19 7.33 59.04 9.93 19.13 2.5 39.51 4.2 54.81-4.89 14.12-8.38 18.76-22.9 21.55-37 2.22-11.21 3.32-22.54 4.23-33.87.98-12.17 1.73-24.39 0-36.5-1.57-10.98-5.17-21.74-6.09-32.77-.6-7.3-.05-14.75-2.87-21.69-2.97-7.26-9.3-13.2-14.97-19.39-5.39-5.87-10.32-12.07-13-19.02-1.26-3.26-2.08-6.9.78-9.3 4.1-3.43 9.95.53 14.92 3.92a464.53 464.53 0 0 1 26 18.83c13.49 10.66 25.75 22.29 36.29 34.9 7.63 9.13 14.3 18.74 21.02 28.32 14.19 20.17 28.7 40.26 46.53 58.48 21.96 22.43 48.65 41.74 80.02 55.16 42.97 18.39 94.2 25.57 135.22 5.55 24.56-11.99 41.05-31.61 59.52-49.42 23.43-22.6 50.6-42.8 69.76-67.78 15.63-20.4 25.31-43.21 33.07-66.35 7.18-21.45 12.69-43.41 10.23-65.48-2.17-19.46-10.36-38.08-20.62-55.84-3.73-6.45-8.25-13.62-2.86-18.86 2.47-2.4 6.23-3.59 10.07-4.2 15.27-2.47 29.62 3.98 44.04 9.46"/><path d="M806.19 819.28c-30.95-4.93-61.58-11.14-91.32-19.6-45.17-12.83-88.06-30.52-134.06-41.23-29.7-6.93-60.35-10.94-90.03-17.95-59.9-14.16-114.81-40.62-176.35-48.52-30.67-3.94-62.2-3.36-91.81-10.7-53.71-13.33-90.83-50.32-118.75-89.9-24.23-34.36-41.71-71.4-61.47-107.56-13.75-25.17-29.74-51.43-19.73-77.21 5.72-14.74 18.86-26.58 29.59-39.49 17.71-21.31 30.26-48.03 60.66-52.85 13.92-2.2 28.32.65 42.29-1.35 23.23-3.32 39.09-19.38 47.66-37.28 7.53-15.71 9.26-32.67 10.85-49.49.82-8.76 1.7-18.05 9.87-23.66 11.75-8.07 28.14-1.43 42.72 4.36 32.34 12.84 64.93 25.3 97.31 38.08 34.9 13.76 69.74 27.82 101 46.3 24.1 14.22 45.59 30.97 66.15 48.4 21.32 18.07 42.02 36.64 65.75 52.64 8.5 5.74 17.18 11.3 26.06 16.65a21.5 21.5 0 0 0 5.72 2.66c9.51 2.45 7.28-8.61 3.53-18.45-6.46-16.94-17.73-32.35-27.81-48.13-9.1-14.25-17.58-28.84-22.84-44.27-1.26-3.7-2.33-7.62 0-10.89 4.33-6.1 14.41-1.74 22.97 1.9 27.44 11.66 55.15 22.98 84.05 32.1 45.9 14.47 94.28 22.97 143.2 28.37 30.78 3.4 61.77 5.66 92.85 6.16 38.51.62 77.35-1.45 114.8 5.48 32.95 6.1 63.12 18.89 92.3 32.69 40.1 18.97 78.6 40 116.1 62.13 33.03 19.5 65.3 39.87 94.6 62.88 23.57 18.51 45.25 38.66 61.36 61.7 11.3 16.16 19.79 33.59 22.25 51.97a84.48 84.48 0 0 1-9.15 50.91c-6.48 12.31-15.95 23.47-22.04 35.9-9.5 19.4-10.27 41-21.59 59.73-11.71 19.38-33.2 33.28-53.73 47.39-14.58 10.01-29.18 20.38-47.25 25.4-33.86 9.38-69.31-2.91-103.58-12.81-27.21-7.86-55.23-14.77-78.15-28.77-26.94-16.47-43.85-40.8-64.17-62.67-12.04-12.95-25.34-25.1-38.54-37.32-11.55-10.69-23.08-21.4-34.1-32.44-5.13-5.15-10.26-10.43-17.27-13.83-7.56-3.68-16.5-4.81-25.26-5.97-4.72-.63-9.7-1.26-13.6.85-6.57 3.57-2.54 10.87 1.33 17 5 7.95 10.82 15.56 15.59 23.6a111.21 111.21 0 0 1 13.82 36.87c2.94 16.14 2.3 32.64-3.52 48.25-6.55 17.54-19.66 34.17-41.53 38.34-9.52 1.82-19.42 1.03-29.16 0a907.93 907.93 0 0 1-47.57-6.37z"/><path d="M822.39 770.23c-37.5-.1-73.79-9.1-109.2-19.17-45.9-13.06-90.78-28.3-136.02-42.78-54.44-17.43-109.54-33.72-166.5-44.78-66.87-13-137.3-18.91-194-49.5-30.15-16.28-54.16-38.5-76.69-61.43-26.17-26.62-51.18-54.98-57.25-88.28-5.48-30.04 5.19-60.76 31.5-82.52 26.13-21.61 63.72-31.03 93.92-49.12 26.36-15.78 45.85-37.46 66.56-58.02 7.6-7.54 15.78-15.34 27.52-16.9 13.25-1.76 25.05 5.17 36.7 10.94 30.33 14.99 64.24 24.53 96 37.54 23.22 9.5 45.28 20.87 63.98 35.4 30.06 23.35 50.11 54.22 83.76 74 16.24 9.55 34.7 16.37 51 25.87 3.85 2.25 7.74 4.67 12.45 4.83 10.18.34 12.02-10.04 13.89-18.82 3.18-14.94 7.6-30.39 0-44.07-5.54-9.97-17.68-19.14-10.4-27.55 4.9-5.68 14.4-5.99 23.3-5.96 32.68.1 65.36 3.35 96.44 11.37 30.5 7.86 58.94 20.5 90.24 25.85 37.15 6.34 75.43 1.7 113.49 0 31.27-1.4 62.85-.88 92.94 5.95 41.73 9.47 77.4 30.26 112.92 50.41 33.15 18.81 66.68 37.22 98.34 57.6 22.53 14.51 44 30.07 63.1 47.44 22.18 20.19 41.1 42.75 51.67 68.22 5.04 12.18 7.99 24.87 7.54 37.69-.45 12.8-4.24 25.45-12.3 36.49-6.9 9.44-16.8 17.46-21.2 27.76-4.09 9.51-2.96 19.84-4.73 29.83-2.72 15.3-12.02 29.22-24 41.4-13.87 14.13-31.31 26.08-52.63 31.53-22.02 5.62-45.6 3.8-68.1-.84-44.72-9.22-84.3-29.18-122.36-50.3-29.38-16.32-58.52-33.4-80.16-56.11-16.94-17.78-28.9-38.92-51.3-52.07-12.23-7.18-26.68-11.27-40.86-15.66-18.4-5.7-39.92-13.2-46.07 0-3.2 6.86.24 14.31 0 21.73-.32 9.4-6.72 17.97-7.13 27.36-.5 11.44 8.27 21.66 10.34 33.06 2.37 13.02-4.05 26.24-17.38 33.9-11.23 6.44-25.4 7.75-39.32 7.7z"/><path d="M790.43 700.3c-3.26 4.48-6.82 8.88-12.1 11.83-17.34 9.65-37.6-3.3-57.05-12.18-28.33-12.94-60.16-19.8-91.1-28.16-66.53-18-130.74-41.08-197.15-59.38-66.2-18.23-135.06-32.09-192.45-63.86-29.61-16.38-55.14-37.02-75.7-60.68-13.63-15.67-25.48-33.21-22.24-51.9 2.61-15.08 14.63-27.85 30.84-35.9 16.99-8.42 37.27-11.02 55.9-16.94 16.13-5.14 30.92-12.69 43.21-22.5 13.73-10.99 24.08-24.76 40.45-32.97 16.27-8.15 36.02-9.55 55.17-7.68 39.31 3.82 74.03 20.87 104.61 41.28 25.98 17.32 49.12 37.16 73.75 55.72 28.31 21.32 58.34 41.15 89.56 59.69 6.23 3.7 12.89 7.5 20.4 6.54 11.76-1.5 13.9-13.09 18-22.63 6.95-16.19 20.94-30.61 20.17-47.53-.44-9.66-5.66-19.5 0-27.82 6.53-9.59 22.3-9.53 36.36-7.86 30.04 3.57 57.52 14.94 86.57 22.23 49.04 12.31 101.14 12.38 152.48 9.16 29-1.81 58.35-4.86 86.4.97 33.81 7.04 61 25.9 89.45 42.45 36.86 21.42 76.75 39.37 112.12 62.32a383.94 383.94 0 0 1 60.8 48.75 350.7 350.7 0 0 1 40.07 47.31c9.72 13.78 18.62 28.48 16.75 44.1-1.53 12.67-9.95 23.89-17.78 35.05-7.83 11.17-15.3 22.6-18.87 35.06-4.68 16.32-2.61 34.02-13.64 48.05-14.04 17.85-42.78 21.54-69.63 19.8-45.98-2.96-86.93-22.01-126.46-41.48-45.28-22.3-90.14-46.04-122.42-79.7-13.18-13.75-24.1-29.14-41.17-39.69-20.06-12.39-45.9-16.55-71-13.4-23.59 2.95-45.25 12.19-61.72 26.06-18.85 15.88-28.72 36.9-42.58 55.9z"/><path d="M739.25 631.73c-28 1.78-55.55-4.23-82.06-11.88-48.9-14.1-94.86-33.79-142.1-51.18-45.51-16.77-92.14-31.69-135.48-51.78-28.52-13.21-57.4-29.37-62.63-54.9-2.59-12.66 1.27-25.4 6.82-37.5 7.58-16.48 18.32-32.12 34.28-44.11 15.9-11.96 36.57-19.77 58.03-17.48 27.58 2.94 46.65 21.53 66.85 37.39 35.79 28.08 79 50.3 107.3 83.26 13.9 16.2 24.8 36.14 48.22 39.87 11.6 1.85 23.4-.88 32.93-6.54 18.14-10.77 24.5-29.4 28.64-47.4 3.7-16.12 5.42-32.87 15.62-46.97 6.63-9.18 16.58-16.68 29.33-19.35 19.98-4.18 39.49 4.71 58.56 11.8 39.65 14.7 82.69 23.83 126 20.31 26.67-2.16 52.54-9.31 79.3-9.1 44.38.33 83.27 20.47 120.07 40.99a2216.69 2216.69 0 0 1 96.77 57.13c21.93 13.73 43.6 27.76 63.18 43.61 19.07 15.45 36.12 32.49 49.07 51.57 7.77 11.45 14.25 23.89 11.67 36.64-2.66 13.2-14.29 23.65-23.76 34.8-8.52 10.02-15.4 21.03-16.55 33.05-.6 6.25.33 12.71-3.1 18.28-7.96 12.9-29.47 6.33-48.12 1.35-39.61-10.56-80.46-18.04-119.12-30.62-41.09-13.37-81.2-32.28-98.76-64.47-9.15-16.76-11.97-37.24-32.02-44.83-15.23-5.77-33.53-1.42-48.97-6.86-14.63-5.16-22.6-17.8-36.45-24.31-16.7-7.85-37.24-4.63-54.9 2.3-26.68 10.44-46.47 29.29-71.8 41.8a150.3 150.3 0 0 1-56.82 15.13z"/><path d="M753.03 581.76c-13.07.58-26.1-1-38.07-5.27-14.7-5.24-29.32-14.8-23.72-26.08 3.45-6.96 12.5-10.46 19.46-15.62 10.31-7.65 14.76-18.79 18.23-29.8 4.84-15.36 7.6-31.08 8.9-46.9.78-9.54 1.34-19.45 9.48-26.18 13.7-11.32 35.43-2.97 54.15 4.2 20.36 7.83 40.43 16.08 59.9 25.25 14.69 6.92 29.86 14.68 34.4 27.61 3.95 11.28-1.52 23.23-13.21 30.28-16.57 9.98-40.99 7.01-56.2 18.19-9.63 7.08-13.36 17.75-21.47 26.03-12.1 12.38-32.11 17.42-51.85 18.3z"/><path d="M765.69 456.26c-10.31 9.4-7.34 23.02 0 34.46 4.46 6.96 10.72 13.3 19.9 15.84 13.57 3.76 27.49-2.32 40.44-7.83 8.77-3.74 18.25-7.82 19.4-15.45 1.33-8.88-9.81-14.48-19.84-19.36-20.58-10-45.14-21.11-59.9-7.66zM953.61 472.88c-7.54 12.42-6.49 27.07 1.83 39.23 8.78 12.81 24.23 21.4 40.2 28.69 10.82 4.94 22.04 9.62 30.01 17.23 12.55 11.97 13.7 28.94 23.32 42.65 6.94 9.92 17.7 17.58 28.24 25.25 25.47 18.54 50.2 38.05 80.28 51.31 21.32 9.4 44.74 15.12 68.78 18.12 20.72 2.58 42.3 3.36 61.33-3.45 13.3-4.78 23.86-13.17 29.73-23.85 14.08-25.59-3.36-53.85-26.09-75.87-27.9-27.05-65.95-45.42-101.86-65.7-39.07-22.06-75.86-46.94-118.49-64.14-25.42-10.27-53.54-18.3-80.73-12.31-15.64 3.44-29.47 11.18-36.55 22.84z"/><path d="M1017.72 479.04c-4.1 5.41-5.48 11.94-3.24 18 3.8 10.29 16.88 15.82 25.9 23.99 9.42 8.52 14.24 19.53 21.08 29.55 9.08 13.31 21.49 24.93 33.66 36.57 20.63 19.72 41.65 39.38 67.75 54.3 24.63 14.08 53.18 23.61 83.33 23.85 16.27.12 33.88-2.34 41.2-13.6 5.52-8.5 2.72-18.41-1.65-27.5-11.19-23.26-31.93-42.75-57.35-57.18-25.77-14.61-55.65-23.82-81.24-38.64-21.58-12.5-39.43-28.62-59.6-42.57-15.82-10.94-34.35-22.08-53.63-16.98-6.76 1.78-12.52 5.33-16.21 10.2z"/></g></svg>