<svg xmlns="http://www.w3.org/2000/svg" width="23" height="17" viewBox="0 0 23 17"><g><g><g><g><path fill="#00b3f0" d="M20.523 2c.197 0 .358.16.358.358V14.24a.359.359 0 0 1-.358.358H2.359A.359.359 0 0 1 2 14.24V2.358C2 2.16 2.16 2 2.359 2zm2.358 12.24V2.359A2.36 2.36 0 0 0 20.523 0H2.359A2.36 2.36 0 0 0 0 2.358V14.24a2.36 2.36 0 0 0 2.358 2.358h18.164a2.36 2.36 0 0 0 2.358-2.358z"/></g></g><g><g><path fill="#00b3f0" d="M20.523 16.099H2.359a1.868 1.868 0 0 1-1.734-1.2.502.502 0 0 1 .134-.551l7.09-6.322a.499.499 0 1 1 .666.746L1.73 14.82a.86.86 0 0 0 .628.278h18.164a.858.858 0 0 0 .627-.277L14.288 8.7a.5.5 0 1 1 .666-.746l7.168 6.393a.501.501 0 0 1 .135.55 1.865 1.865 0 0 1-1.734 1.2z"/></g></g><g><g><path fill="#00b3f0" d="M2.359 1.5h18.164c.24 0 .468.105.627.278l-9.71 8.658-9.708-8.657a.852.852 0 0 1 .627-.28zm9.415 9.979L22.122 2.25a.5.5 0 0 0 .135-.55A1.865 1.865 0 0 0 20.523.5H2.359C1.594.5.898.983.625 1.7a.501.501 0 0 0 .134.55l10.349 9.229a.498.498 0 0 0 .666 0z"/></g></g></g></g></svg>