<svg xmlns="http://www.w3.org/2000/svg" width="24" height="24" viewBox="0 0 24 24"><g><g><g><path fill="#00b3f0" d="M2 4.95c.2-.24.398-.458.601-.662A10.236 10.236 0 0 1 6.077 2c.077 0 .186.026.272.057.514 1.438 1.137 3.245 1.576 4.881.004.061-.015.184-.04.277l-1.58 1.003c-.448.278-.756.737-.864 1.292-.14.72.06 1.516.55 2.187a27.28 27.28 0 0 0 2.561 3 26.631 26.631 0 0 0 2.98 2.54c1.193.873 2.851.71 3.473-.303l1.006-1.585c.081-.022.184-.043.235-.049 2.092.466 3.363.867 4.91 1.556.042.098.081.22.092.228a10.197 10.197 0 0 1-2.303 3.543 9.934 9.934 0 0 1-.665.603c-3.912-.014-7.98-1.848-11.145-5.01l-.097-.099C3.882 12.964 2.015 8.812 2 4.951zm16.325 18.28l.668-.01.261-.206c.39-.304.76-.63 1.104-.97a12.189 12.189 0 0 0 2.754-4.235c.353-.899-.146-2.332-.936-2.688-1.777-.806-3.164-1.253-5.493-1.772a1.715 1.715 0 0 0-.388-.04c-.138 0-1.365.022-1.854.782l-.564.887-.612.854c-.166 0-.37-.077-.553-.21a24.655 24.655 0 0 1-2.746-2.339 24.938 24.938 0 0 1-2.36-2.766c-.23-.315-.223-.59-.239-.605l1.768-1.12c.742-.469.878-1.752.74-2.283-.502-1.892-1.19-3.87-1.737-5.386C7.828.274 6.616 0 6.078 0c-.239 0-.459.04-.653.114A12.087 12.087 0 0 0 .218 3.973l-.207.261-.008.334c-.108 4.53 1.913 9.223 5.621 12.96v.001l.071.076c3.574 3.575 8.177 5.625 12.63 5.625z"/></g></g></g></svg>