<svg xmlns="http://www.w3.org/2000/svg" width="27" height="14" viewBox="0 0 27 14"><g><g><g><g><path fill="#fff" d="M0 13.927V0h26.46v13.927z"/></g><g><path fill="#b22234" d="M0 1.071V0h26.46v1.071z"/></g><g><path fill="#b22234" d="M0 3.214V2.143h26.46v1.07z"/></g><g><path fill="#b22234" d="M0 5.356v-1.07h26.46v1.07z"/></g><g><path fill="#b22234" d="M0 7.499V6.428h26.46v1.071z"/></g><g><path fill="#b22234" d="M0 9.642V8.57h26.46v1.072z"/></g><g><path fill="#b22234" d="M0 11.784v-1.071h26.46v1.071z"/></g><g><path fill="#b22234" d="M0 13.927v-1.071h26.46v1.07z"/></g><g><path fill="#3c3b6e" d="M0 7.499V0h10.584v7.499z"/></g><g><path fill="#fff" d="M.497.609L.75.792l-.096.296.252-.183.252.183-.096-.296.252-.183h-.311L.905.312.81.61z"/></g><g><path fill="#fff" d="M2.252.609l.252.183-.096.296.252-.183.252.183-.096-.296.252-.183h-.312L2.66.312 2.564.61z"/></g><g><path fill="#fff" d="M4.007.609l.252.183-.096.296.252-.183.252.183L4.57.792l.252-.183H4.51L4.415.312 4.318.61z"/></g><g><path fill="#fff" d="M5.762.609l.252.183-.097.296.253-.183.252.183-.097-.296.253-.183h-.312L6.17.312 6.073.61z"/></g><g><path fill="#fff" d="M7.516.609l.253.183-.097.296.252-.183.252.183L8.08.792l.252-.183h-.311L7.924.312 7.828.61z"/></g><g><path fill="#fff" d="M9.271.609l.252.183-.096.296.252-.183.252.183-.096-.296.252-.183h-.312L9.68.312 9.583.61z"/></g><g><path fill="#fff" d="M1.375 1.36l.252.184-.097.296.253-.183.252.183-.097-.296.253-.183h-.312l-.096-.297-.097.297z"/></g><g><path fill="#fff" d="M3.13 1.36l.252.184-.097.296.252-.183.253.183-.097-.296.252-.183h-.311l-.097-.297-.096.297z"/></g><g><path fill="#fff" d="M4.884 1.36l.252.184-.096.296.252-.183.252.183-.096-.296.252-.183h-.312l-.096-.297-.096.297z"/></g><g><path fill="#fff" d="M6.639 1.36l.252.184-.096.296.252-.183.252.183-.096-.296.252-.183h-.312l-.096-.297-.096.297z"/></g><g><path fill="#fff" d="M8.394 1.36l.252.184-.096.296.252-.183.252.183-.096-.296.252-.183h-.312l-.096-.297-.097.297z"/></g><g><path fill="#fff" d="M.497 2.113l.252.183-.096.297.252-.184.252.184-.096-.297.252-.183h-.311l-.097-.296-.096.296z"/></g><g><path fill="#fff" d="M2.252 2.113l.252.183-.096.297.252-.184.252.184-.096-.297.252-.183h-.312l-.096-.296-.096.296z"/></g><g><path fill="#fff" d="M4.007 2.113l.252.183-.096.297.252-.184.252.184-.096-.297.252-.183H4.51l-.096-.296-.097.296z"/></g><g><path fill="#fff" d="M5.762 2.113l.252.183-.097.297.253-.184.252.184-.097-.297.253-.183h-.312l-.096-.296-.097.296z"/></g><g><path fill="#fff" d="M7.516 2.113l.253.183-.097.297.252-.184.252.184-.096-.297.252-.183h-.311l-.097-.296-.096.296z"/></g><g><path fill="#fff" d="M9.271 2.113l.252.183-.096.297.252-.184.252.184-.096-.297.252-.183h-.312l-.096-.296-.096.296z"/></g><g><path fill="#fff" d="M1.396 2.867l.252.184-.096.296.252-.183.252.183-.096-.296.252-.184h-.311l-.097-.296-.096.296z"/></g><g><path fill="#fff" d="M3.151 2.867l.252.184-.096.296.252-.183.252.183-.096-.296.252-.184h-.312l-.096-.296-.096.296z"/></g><g><path fill="#fff" d="M4.906 2.867l.252.184-.096.296.252-.183.252.183-.096-.296.252-.184H5.41l-.096-.296-.096.296z"/></g><g><path fill="#fff" d="M6.66 2.867l.253.184-.097.296.253-.183.252.183-.097-.296.253-.184h-.312l-.096-.296-.097.296z"/></g><g><path fill="#fff" d="M8.415 2.867l.253.184-.097.296.252-.183.252.183-.096-.296.252-.184H8.92l-.097-.296-.096.296z"/></g><g><path fill="#fff" d="M.524 3.613l.252.183-.096.297.252-.183.252.183-.096-.297.252-.183h-.312l-.096-.296-.096.296z"/></g><g><path fill="#fff" d="M2.279 3.613l.252.183-.096.297.252-.183.252.183-.097-.297.253-.183h-.312l-.096-.296-.097.296z"/></g><g><path fill="#fff" d="M4.033 3.613l.253.183-.097.297.252-.183.253.183-.097-.297.252-.183h-.311l-.097-.296-.096.296z"/></g><g><path fill="#fff" d="M5.788 3.613l.252.183-.096.297.252-.183.252.183-.096-.297.252-.183h-.312l-.096-.296-.096.296z"/></g><g><path fill="#fff" d="M7.543 3.613l.252.183-.096.297.252-.183.252.183-.096-.297.252-.183h-.312l-.096-.296-.096.296z"/></g><g><path fill="#fff" d="M9.298 3.613l.252.183-.096.297.252-.183.252.183-.096-.297.252-.183h-.312l-.096-.296-.097.296z"/></g><g><path fill="#fff" d="M.54 5.093l.252.184-.096.296.252-.183.252.183-.096-.296.252-.184h-.311l-.097-.296-.096.296z"/></g><g><path fill="#fff" d="M2.295 5.093l.252.184-.096.296.252-.183.252.183-.096-.296.252-.184h-.312l-.096-.296-.096.296z"/></g><g><path fill="#fff" d="M4.05 5.093l.252.184-.096.296.252-.183.252.183-.096-.296.252-.184h-.312l-.096-.296-.096.296z"/></g><g><path fill="#fff" d="M5.805 5.093l.252.184-.096.296.252-.183.252.183-.097-.296.253-.184h-.312l-.096-.296-.097.296z"/></g><g><path fill="#fff" d="M7.56 5.093l.252.184-.097.296.252-.183.253.183-.097-.296.252-.184h-.311l-.097-.296-.096.296z"/></g><g><path fill="#fff" d="M9.314 5.093l.252.184-.096.296.252-.183.252.183-.096-.296.252-.184h-.312l-.096-.296-.096.296z"/></g><g><path fill="#fff" d="M.519 6.591l.252.183-.096.297.252-.183.252.183-.096-.297.252-.183h-.312l-.096-.296-.096.296z"/></g><g><path fill="#fff" d="M2.274 6.591l.252.183-.096.297.252-.183.252.183-.097-.297.253-.183h-.312l-.096-.296-.097.296z"/></g><g><path fill="#fff" d="M4.028 6.591l.253.183-.097.297.252-.183.253.183-.097-.297.252-.183h-.311l-.097-.296-.096.296z"/></g><g><path fill="#fff" d="M5.783 6.591l.252.183-.096.297.252-.183.252.183-.096-.297.252-.183h-.311l-.097-.296-.096.296z"/></g><g><path fill="#fff" d="M7.538 6.591l.252.183-.096.297.252-.183.252.183-.096-.297.252-.183h-.312l-.096-.296-.096.296z"/></g><g><path fill="#fff" d="M9.293 6.591l.252.183-.096.297.252-.183.252.183-.096-.297.252-.183h-.312l-.096-.296-.097.296z"/></g><g><path fill="#fff" d="M1.402 4.346l.252.183-.097.296.252-.183.253.183-.097-.296.252-.183h-.311l-.097-.297-.096.297z"/></g><g><path fill="#fff" d="M3.156 4.346l.252.183-.096.296.252-.183.252.183-.096-.296.252-.183h-.311l-.097-.297-.096.297z"/></g><g><path fill="#fff" d="M4.911 4.346l.252.183-.096.296.252-.183.252.183-.096-.296.252-.183h-.312l-.096-.297-.096.297z"/></g><g><path fill="#fff" d="M6.666 4.346l.252.183-.096.296.252-.183.252.183-.096-.296.252-.183H7.17l-.096-.297-.096.297z"/></g><g><path fill="#fff" d="M8.42 4.346l.253.183-.097.296.253-.183.252.183-.097-.296.253-.183h-.312l-.096-.297-.097.297z"/></g><g><path fill="#fff" d="M1.396 5.841l.252.183-.096.297.252-.183.252.183-.096-.297.252-.183h-.311l-.097-.296-.096.296z"/></g><g><path fill="#fff" d="M3.151 5.841l.252.183-.096.297.252-.183.252.183-.096-.297.252-.183h-.312l-.096-.296-.096.296z"/></g><g><path fill="#fff" d="M4.906 5.841l.252.183-.096.297.252-.183.252.183-.096-.297.252-.183H5.41l-.096-.296-.096.296z"/></g><g><path fill="#fff" d="M6.66 5.841l.253.183-.097.297.253-.183.252.183-.097-.297.253-.183h-.312l-.096-.296-.097.296z"/></g><g><path fill="#fff" d="M8.415 5.841l.253.183-.097.297.252-.183.253.183-.097-.297.252-.183H8.92l-.097-.296-.096.296z"/></g></g></g></g></svg>