<svg width="19" height="19" xmlns="http://www.w3.org/2000/svg" xmlns:xlink="http://www.w3.org/1999/xlink"><defs><path id="a" d="M.608.274h9.706v9.705H.608z"/><path id="c" d="M0 .018H11.63v11.276H0z"/></defs><g fill="none" fill-rule="evenodd"><g transform="translate(4.412 3)"><mask id="b" fill="#fff"><use xlink:href="#a"/></mask><path d="M1.663 6.807l-.125.125.125-.125a.619.619 0 0 0-.873.874L2.908 9.8c.115.115.271.18.434.18l.046-.002a.618.618 0 0 0 .45-.244l6.354-8.471a.62.62 0 0 0-.495-.988.618.618 0 0 0-.494.247l-5.926 7.9-1.614-1.614z" fill="#707B8E" mask="url(#b)"/></g><g transform="translate(3 3.706)"><mask id="d" fill="#fff"><use xlink:href="#c"/></mask><path d="M11.109 4.112a.52.52 0 0 0-.52.52v5.21c-.001.11-.045.207-.124.285a.452.452 0 0 1-.318.126H1.483c-.129 0-.239-.05-.319-.126a.394.394 0 0 1-.123-.284V1.469c0-.11.044-.206.123-.284a.454.454 0 0 1 .32-.126h5.39a.52.52 0 0 0 0-1.041h-5.39C.676.019.001.654 0 1.469v8.374c0 .404.171.774.44 1.033a1.5 1.5 0 0 0 1.043.418h8.664a1.5 1.5 0 0 0 1.042-.418c.268-.26.44-.629.44-1.033v-5.21a.52.52 0 0 0-.52-.521" fill="#707B8E" mask="url(#d)"/></g></g></svg>