<svg width="19" height="19" xmlns="http://www.w3.org/2000/svg" xmlns:xlink="http://www.w3.org/1999/xlink"><defs><path id="a" d="M0 0h19v19H0z"/></defs><g fill="none" fill-rule="evenodd"><mask id="b" fill="#fff"><use xlink:href="#a"/></mask><path d="M14.834 14.834a7.65 7.65 0 0 1-1.375 1.08 7.794 7.794 0 0 1-1.032.523c-.201.087-.4.173-.61.24.22-.283.42-.617.609-.973.314-.593.588-1.266.8-2.026h2.553a7.618 7.618 0 0 1-.945 1.156zM8.485 16.61c-.563-.468-1.161-1.403-1.577-2.651-.03-.088-.053-.188-.08-.28h5.349a9.248 9.248 0 0 1-.554 1.418c-.34.682-.734 1.2-1.109 1.513-.38.318-.703.433-1.014.435-.311-.002-.634-.117-1.015-.435zM6.58 16.44a7.663 7.663 0 0 1-1.04-.528 7.677 7.677 0 0 1-1.375-1.078 7.665 7.665 0 0 1-.944-1.156h2.551c.215.764.492 1.443.808 2.037.187.351.385.682.602.963-.206-.067-.403-.152-.602-.238zM2.66 6.331l.05.01H5.53a16.033 16.033 0 0 0-.292 2.644H1.982a7.47 7.47 0 0 1 .678-2.654zm1.505-2.166c.414-.412.878-.77 1.375-1.078a7.757 7.757 0 0 1 1.033-.525c.2-.086.4-.173.61-.24a6.976 6.976 0 0 0-.61.974c-.314.594-.59 1.272-.803 2.034H3.214c.28-.419.597-.81.95-1.165zm8.254-1.606c.36.153.71.324 1.041.528.497.308.961.667 1.374 1.078.355.355.672.746.951 1.165H13.231a10.156 10.156 0 0 0-.811-2.046 6.83 6.83 0 0 0-.603-.963c.207.067.404.153.602.238zm2.349 6.426h-1.006a16.033 16.033 0 0 0-.292-2.644H16.29l.05-.01c.379.816.614 1.71.678 2.654h-2.25zM8.485 2.39c.38-.317.704-.433 1.015-.435.311.002.634.118 1.014.435.564.47 1.161 1.405 1.578 2.651.03.092.053.194.082.29H6.82a9.24 9.24 0 0 1 .556-1.427c.34-.683.735-1.2 1.11-1.514zm-1.93 3.95h5.882c.174.815.282 1.706.313 2.645H6.243c.03-.938.137-1.831.312-2.644zm-4.573 3.674H5.238c.027.926.126 1.812.29 2.635H2.65a7.478 7.478 0 0 1-.669-2.635zm10.442 2.635H6.561a14.838 14.838 0 0 1-.31-2.635h6.505c-.03.935-.135 1.825-.309 2.635h-.023zm3.925 0H13.47c.164-.823.263-1.71.291-2.635h3.256a7.497 7.497 0 0 1-.67 2.635zm1.697-3.227c-.033-3.66-2.369-6.765-5.627-7.95A8.5 8.5 0 0 0 9.5.95c-1.03 0-2.013.192-2.928.525C3.294 2.671.95 5.807.95 9.5c0 3.694 2.349 6.833 5.631 8.028a8.517 8.517 0 0 0 2.919.522c1.03 0 2.013-.192 2.927-.526 3.255-1.187 5.586-4.289 5.619-7.946l.004-.078-.004-.078z" fill="#707B8E" mask="url(#b)"/></g></svg>