<svg width="19" height="19" xmlns="http://www.w3.org/2000/svg" xmlns:xlink="http://www.w3.org/1999/xlink"><defs><path id="a" d="M.829.7h10.3V8H.829z"/><path id="c" d="M0 .2h15.957V8.83H0z"/></defs><g fill="none" fill-rule="evenodd"><g transform="translate(4 9)"><mask id="b" fill="#fff"><use xlink:href="#a"/></mask><path d="M10.479.7a.65.65 0 0 0-.65.65V6.7h-7.7V1.35a.65.65 0 1 0-1.3 0v6a.652.652 0 0 0 .65.65h9a.655.655 0 0 0 .46-.19.655.655 0 0 0 .19-.46v-6a.65.65 0 0 0-.65-.65" fill="#707B8E" mask="url(#b)"/></g><g transform="translate(2 2)"><mask id="d" fill="#fff"><use xlink:href="#c"/></mask><path d="M15.767 7.72L8.437.39a.651.651 0 0 0-.918 0L.19 7.72a.65.65 0 1 0 .919.918L7.979 1.77l6.868 6.87a.65.65 0 0 0 .92-.92" fill="#707B8E" mask="url(#d)"/></g></g></svg>