<svg width="19" height="19" xmlns="http://www.w3.org/2000/svg"><path d="M8.834 10.538a1.025 1.025 0 0 0-.15-.045L7.419 6.776h5.359l-3.943 3.762zM6.061 9.89c.227.324.371.7.436 1.103H4.471l1.01-1.7c.22.172.42.368.58.597zm1.473 1.103h-.142a3.514 3.514 0 0 0-.26-.97 3.626 3.626 0 0 0-1.21-1.476l.74-1.241 1.15 3.374c-.114.086-.209.19-.278.313zm-1.212 1.488c-.214.49-.575.91-1.026 1.203a2.89 2.89 0 0 1-1.584.466c-.392 0-.764-.076-1.103-.214a2.825 2.825 0 0 1-1.245-.99 2.65 2.65 0 0 1-.262-2.592A2.77 2.77 0 0 1 2.129 9.15a2.9 2.9 0 0 1 1.583-.466c.357.001.692.071 1.006.187l-1.387 2.336-.058.21.058.214h.001c.078.13.223.211.38.211h2.792a2.6 2.6 0 0 1-.182.64zm11.387 0c-.214.49-.574.91-1.026 1.203a2.892 2.892 0 0 1-1.583.466c-.393 0-.765-.076-1.103-.214a2.825 2.825 0 0 1-1.247-.99 2.656 2.656 0 0 1-.26-2.592c.214-.49.574-.909 1.027-1.204.112-.072.233-.129.356-.186l.799 2.652c.056.189.236.31.429.31l.122-.018a.433.433 0 0 0 .322-.412l-.018-.12-.801-2.66c.123-.016.246-.03.374-.032.392.001.764.077 1.102.215a2.81 2.81 0 0 1 1.246.99 2.647 2.647 0 0 1 .261 2.592zm.81-2.458a3.623 3.623 0 0 0-1.344-1.575 3.796 3.796 0 0 0-2.075-.613c-.213 0-.42.027-.622.06l-.381-1.268-.188-.62-.306-1.016h1.287a.438.438 0 0 0 .446-.43c0-.237-.2-.428-.446-.428h-1.88a.454.454 0 0 0-.355.17.422.422 0 0 0-.09.258l.018.12.375 1.245h-5.83l-.31-.907c.21-.085.422-.173.596-.25.1-.044.188-.085.257-.12l.16-.11.053-.132c-.01-.132-.105-.18-.163-.213l-.124-.05-.012-.004L5.397 4h-.023a.98.98 0 0 0-.399.082.56.56 0 0 0-.339.536c0 .074.01.154.033.242.106.452.469.585.744.576.111 0 .213-.015.294-.03l.131-.024.023.013.052-.02.08-.031.299.877L5.158 8.13a3.803 3.803 0 0 0-1.446-.294c-.51 0-1 .102-1.444.283A3.701 3.701 0 0 0 .634 9.414a3.485 3.485 0 0 0-.342 3.398 3.635 3.635 0 0 0 1.344 1.576 3.83 3.83 0 0 0 3.522.33A3.694 3.694 0 0 0 6.79 13.42c.322-.461.531-1 .603-1.579h.085c.153.38.526.655.974.655.584 0 1.057-.456 1.057-1.019a.976.976 0 0 0-.07-.323l3.957-3.777.227.755a3.698 3.698 0 0 0-1.602 1.281 3.485 3.485 0 0 0-.342 3.398 3.647 3.647 0 0 0 1.344 1.576 3.828 3.828 0 0 0 3.522.33 3.694 3.694 0 0 0 1.632-1.297c.4-.57.634-1.26.634-2V11.413a3.44 3.44 0 0 0-.292-1.389z" fill="#707B8E" fill-rule="evenodd"/></svg>