<svg width="80" height="19" viewBox="0 0 80 19" xmlns="http://www.w3.org/2000/svg" xmlns:xlink="http://www.w3.org/1999/xlink"><defs><path id="a" d="M0 .07h6.96v18.26H0z"/><path id="c" d="M.25.07h6.96v18.26H.25z"/><path id="e" d="M.16.2h14.3v14.25H.15z"/></defs><g fill="none" fill-rule="evenodd"><path d="M21.43 13.24v-.43c0-5.05-2.95-8.15-7.26-8.15-1.84 0-3.63.76-5 2.12a7.14 7.14 0 0 0-.08 9.98 6.7 6.7 0 0 0 5.13 2.17 6.82 6.82 0 0 0 6.58-4.26H16.4c-.6.53-1.26.76-2.07.76-1.74 0-2.77-.76-3.12-2.2h10.2zm-4.01-2.83h-6.33c.28-1.28 1.46-2.14 3.13-2.14 1.59 0 2.72.76 3.2 2.14zM36.5 13.24v-.43c0-5.05-2.95-8.15-7.26-8.15-1.84 0-3.63.76-5 2.12a7.14 7.14 0 0 0-.08 9.98 6.7 6.7 0 0 0 5.13 2.17 6.82 6.82 0 0 0 6.58-4.26h-4.39c-.6.53-1.26.76-2.06.76-1.74 0-2.78-.76-3.13-2.2H36.5zm-4-2.83h-6.33c.27-1.28 1.46-2.14 3.12-2.14 1.59 0 2.72.76 3.2 2.14z" fill="#FFF"/><g transform="translate(0 .28)"><mask id="b" fill="#fff"><use xlink:href="#a"/></mask><path d="M1.46 7.81v10.52h3.91V7.8h1.59V4.8H5.37v-.33c0-1.24.28-1.64 1.49-1.64h.1V.1c-.23 0-.43-.03-.63-.03-3.33 0-4.9 1.31-4.9 4.21 0 .15.03.33.03.5H0v3.03h1.46z" fill="#FFF" mask="url(#b)"/></g><g transform="translate(36.3 .28)"><mask id="d" fill="#fff"><use xlink:href="#c"/></mask><path d="M1.72 7.81v10.52h3.9V7.8h1.6V4.8h-1.6v-.33c0-1.24.28-1.64 1.5-1.64h.1V.1c-.23 0-.44-.03-.64-.03C3.25.07 1.7 1.38 1.7 4.28c0 .15.03.33.03.5H.25v3.03h1.47z" fill="#FFF" mask="url(#d)"/></g><g transform="translate(43.35 4.51)"><mask id="f" fill="#fff"><use xlink:href="#e"/></mask><path d="M14.45 7.24c0-1.84-.78-3.7-2.22-5.07A7.09 7.09 0 0 0 7.22.2c-1.84 0-3.63.76-5 2.12A6.94 6.94 0 0 0 .16 7.3c0 1.89.68 3.63 1.99 5a6.69 6.69 0 0 0 5.12 2.16c2.04 0 3.75-.73 5.14-2.12a6.9 6.9 0 0 0 2.04-5.1m-3.95.1a3.27 3.27 0 0 1-3.2 3.34 3.28 3.28 0 0 1-3.2-3.33 3.27 3.27 0 0 1 3.2-3.35c1.76 0 3.2 1.48 3.2 3.35" fill="#FFF" mask="url(#f)"/></g><path d="M63.92 9.55a3.8 3.8 0 0 1-3.57-3.58h8.39v-.09c0-3.3-2.1-5.49-5.02-5.49a5 5 0 0 0-5.16 5.18c0 2.76 2.16 5.2 5.1 5.2 2.15 0 3.85-1.2 4.77-3.39h-.85a3.8 3.8 0 0 1-3.66 2.17M74.56 9.55a3.8 3.8 0 0 0 3.57-3.58h-8.38v-.09c0-3.3 2.1-5.49 5-5.49a5 5 0 0 1 5.17 5.18c0 2.76-2.16 5.2-5.1 5.2-2.15 0-3.85-1.2-4.76-3.39h.84a3.8 3.8 0 0 0 3.66 2.17" fill="#FD0"/></g></svg>