<?xml version="1.0" standalone="no"?>
<!DOCTYPE svg PUBLIC "-//W3C//DTD SVG 20010904//EN"
 "http://www.w3.org/TR/2001/REC-SVG-20010904/DTD/svg10.dtd">
<svg version="1.0" xmlns="http://www.w3.org/2000/svg"
 width="512.000000pt" height="512.000000pt" viewBox="0 0 512.000000 512.000000"
 preserveAspectRatio="xMidYMid meet">
<metadata>
Created by potrace 1.11, written by Peter Selinger 2001-2013
</metadata>
<g transform="translate(0.000000,512.000000) scale(0.100000,-0.100000)"
fill="#000000" stroke="none">
<path d="M0 2560 l0 -2560 2560 0 2560 0 0 2560 0 2560 -2560 0 -2560 0 0
-2560z m723 475 l37 -7 0 -69 0 -69 -140 0 -140 0 0 -105 0 -105 130 0 130 0
0 -75 0 -75 -130 0 -130 0 0 -175 0 -175 -80 0 -80 0 0 428 0 428 183 3 c101
1 200 -1 220 -4z m181 -1 l46 -7 0 -423 0 -424 -80 0 -80 0 0 423 c0 233 3
427 7 430 8 9 47 9 107 1z m1501 -29 c44 -43 30 -114 -25 -134 -35 -12 -56 -7
-87 22 -50 45 -12 137 57 137 19 0 40 -9 55 -25z m295 -85 l0 -110 45 0 45 0
0 -59 0 -60 -42 -3 -43 -3 -3 -252 -2 -253 -73 0 -72 0 1 242 c1 133 0 248 -3
255 -3 7 -20 13 -39 13 l-34 0 0 59 0 60 38 3 37 3 0 107 0 108 73 0 72 0 0
-110z m1230 -145 c0 -156 4 -255 10 -255 5 0 53 65 107 145 l98 144 83 1 83 0
-22 -32 c-13 -18 -63 -86 -111 -150 -48 -64 -88 -120 -88 -123 0 -3 53 -72
118 -153 65 -81 122 -153 126 -159 5 -10 -13 -13 -81 -13 l-88 0 -109 150
c-60 83 -113 150 -118 150 -4 0 -8 -67 -8 -150 l0 -150 -70 0 -70 0 0 425 0
425 70 0 70 0 0 -255z m-2475 44 c69 -26 157 -108 186 -174 23 -52 35 -139 25
-179 l-6 -26 -250 0 c-138 0 -250 -2 -250 -5 0 -22 33 -76 59 -98 70 -59 165
-55 229 9 33 33 36 34 113 34 51 0 79 -4 79 -11 0 -28 -37 -84 -86 -128 -67
-62 -133 -86 -230 -85 -208 3 -367 201 -325 406 26 125 122 232 241 269 51 15
158 10 215 -12z m2081 -14 c117 -52 185 -150 192 -277 l5 -78 -257 0 c-170 0
-256 -3 -256 -10 0 -6 9 -28 20 -50 54 -106 192 -134 276 -55 36 34 39 35 116
35 l78 0 -20 -39 c-26 -53 -83 -107 -145 -139 -43 -22 -63 -26 -140 -27 -79 0
-97 4 -146 28 -66 32 -132 99 -162 165 -32 68 -31 207 1 277 42 91 144 176
233 195 62 12 145 2 205 -25z m-446 -43 l0 -68 -44 -12 c-31 -8 -51 -21 -68
-44 -22 -32 -23 -41 -26 -245 l-3 -213 -72 0 -72 0 1 221 c2 250 9 290 63 350
40 45 118 78 184 79 l37 0 0 -68z m1581 53 c54 -19 86 -49 110 -100 31 -67 28
-70 -48 -67 -53 3 -73 9 -96 28 -55 46 -157 26 -157 -31 0 -34 28 -52 117 -74
146 -36 206 -82 219 -167 13 -88 -34 -180 -110 -215 -47 -21 -224 -27 -273 -8
-46 17 -92 69 -108 123 -8 27 -15 53 -15 58 0 4 29 8 64 8 61 0 66 -2 82 -30
18 -30 76 -60 118 -60 72 0 118 48 94 98 -13 27 -17 29 -181 77 -77 22 -131
70 -146 131 -27 108 28 201 139 235 43 13 146 10 191 -6z m-2775 -90 c32 -52
61 -95 64 -95 3 0 30 41 59 91 30 50 60 93 66 95 6 3 46 4 89 2 l76 -3 -96
-150 c-54 -82 -97 -155 -97 -161 0 -10 182 -276 209 -304 12 -12 14 31 14 303
l0 317 75 0 75 0 0 -325 0 -325 -167 0 -168 1 -64 104 c-35 58 -67 105 -71
105 -4 0 -36 -47 -71 -105 l-64 -104 -94 -1 c-91 0 -93 0 -80 20 8 11 59 86
115 167 l101 148 -98 153 c-55 84 -99 155 -99 157 0 3 38 5 84 5 l84 0 58 -95z"/>
<path d="M1252 2679 c-41 -21 -92 -79 -92 -107 0 -10 37 -12 173 -10 165 3
172 4 169 23 -6 33 -42 74 -82 95 -51 26 -114 25 -168 -1z"/>
<path d="M3345 2697 c-65 -26 -103 -63 -119 -114 l-7 -23 180 0 c202 0 201 0
160 66 -40 65 -144 100 -214 71z"/>
</g>
</svg>
